<svg width="497" height="252" viewBox="0 0 497 252" fill="none" xmlns="http://www.w3.org/2000/svg">
<path d="M213.887 196.191C213.887 185.84 215.905 176.53 219.941 168.262C224.043 159.993 229.707 153.613 236.934 149.121C244.225 144.629 252.526 142.383 261.836 142.383C276.224 142.383 287.845 147.363 296.699 157.324C305.618 167.285 310.078 180.534 310.078 197.07V198.34C310.078 208.626 308.092 217.871 304.121 226.074C300.215 234.212 294.583 240.56 287.227 245.117C279.935 249.674 271.536 251.953 262.031 251.953C247.708 251.953 236.087 246.973 227.168 237.012C218.314 227.051 213.887 213.867 213.887 197.461V196.191ZM232.051 198.34C232.051 210.059 234.753 219.466 240.156 226.562C245.625 233.659 252.917 237.207 262.031 237.207C271.211 237.207 278.503 233.626 283.906 226.465C289.31 219.238 292.012 209.147 292.012 196.191C292.012 184.603 289.245 175.228 283.711 168.066C278.242 160.84 270.951 157.227 261.836 157.227C252.917 157.227 245.723 160.775 240.254 167.871C234.785 174.967 232.051 185.124 232.051 198.34ZM359.23 250V158.301H342.531V144.336H359.23V133.496C359.23 122.168 362.258 113.411 368.312 107.227C374.367 101.042 382.928 97.9492 393.996 97.9492C398.163 97.9492 402.297 98.5026 406.398 99.6094L405.422 114.258C402.362 113.672 399.107 113.379 395.656 113.379C389.797 113.379 385.272 115.104 382.082 118.555C378.892 121.94 377.297 126.823 377.297 133.203V144.336H399.855V158.301H377.297V250H359.23ZM457.113 250H439.047V144.336H457.113V250ZM437.582 116.309C437.582 113.379 438.461 110.905 440.219 108.887C442.042 106.868 444.711 105.859 448.227 105.859C451.742 105.859 454.411 106.868 456.234 108.887C458.057 110.905 458.969 113.379 458.969 116.309C458.969 119.238 458.057 121.68 456.234 123.633C454.411 125.586 451.742 126.562 448.227 126.562C444.711 126.562 442.042 125.586 440.219 123.633C438.461 121.68 437.582 119.238 437.582 116.309Z" fill="#484848"/>
<path fill-rule="evenodd" clip-rule="evenodd" d="M50 150H0V250H34C42.8366 250 50 242.837 50 234V150ZM140 150H90L115.19 238.385C117.149 245.259 123.43 250 130.577 250H168.5L140 150Z" fill="url(#paint0_linear_28_144)"/>
<path fill-rule="evenodd" clip-rule="evenodd" d="M60 0C26.8629 0 0 26.8684 0 60.0055V109C0 109 27.7062 82.3695 55.5 69C93.6174 50.6646 168 33 168 33C168 33 88.5 73.5 58 92C27.5 110.5 0 146.5 0 146.5V178C0 178 8 167 20.5 159C31.3189 152.076 45.5089 150.396 49.1299 150.069C49.7151 150.016 50.294 150 50.8816 150H140C173.137 150 200 123.137 200 90V20C200 8.95431 191.046 0 180 0H60Z" fill="url(#paint1_linear_28_144)"/>
<defs>
<linearGradient id="paint0_linear_28_144" x1="84" y1="148" x2="93" y2="273" gradientUnits="userSpaceOnUse">
<stop stop-color="#484848"/>
<stop offset="0.219118" stop-color="#5A684E"/>
<stop offset="1" stop-color="#84A06E"/>
</linearGradient>
<linearGradient id="paint1_linear_28_144" x1="162.5" y1="1.38829e-06" x2="71.5" y2="150" gradientUnits="userSpaceOnUse">
<stop stop-color="#CCE87C"/>
<stop offset="1" stop-color="#679544"/>
</linearGradient>
</defs>
</svg>
